<svg xmlns="http://www.w3.org/2000/svg" xmlns:xlink="http://www.w3.org/1999/xlink" width="1024" zoomAndPan="magnify" viewBox="0 0 768 767.999994" height="1024" preserveAspectRatio="xMidYMid meet" version="1.0"><defs><g/><clipPath id="8af28203d1"><path d="M 0 193.605469 L 768 193.605469 L 768 487.605469 L 0 487.605469 Z M 0 193.605469 " clip-rule="nonzero"/></clipPath><clipPath id="d542e2dc91"><path d="M 395.421875 271.242188 L 452.636719 271.242188 L 452.636719 416.316406 L 395.421875 416.316406 Z M 395.421875 271.242188 " clip-rule="nonzero"/></clipPath><clipPath id="1df026d072"><path d="M 400 268 L 473 268 L 473 420 L 400 420 Z M 400 268 " clip-rule="nonzero"/></clipPath><clipPath id="6a807837ff"><path d="M 366.4375 289.933594 L 466.960938 252.539062 L 515.332031 382.585938 L 414.8125 419.976562 Z M 366.4375 289.933594 " clip-rule="nonzero"/></clipPath><clipPath id="5e1fb66838"><path d="M 366.4375 289.933594 L 466.960938 252.539062 L 515.332031 382.585938 L 414.8125 419.976562 Z M 366.4375 289.933594 " clip-rule="nonzero"/></clipPath><clipPath id="5ddcfe5c2c"><path d="M 166.5625 443.355469 L 601.4375 443.355469 L 601.4375 514.976562 L 166.5625 514.976562 Z M 166.5625 443.355469 " clip-rule="nonzero"/></clipPath></defs><g clip-path="url(#8af28203d1)"><path stroke-linecap="butt" transform="matrix(0.75, 0, 0, 0.75, -71.090369, 193.605332)" fill="none" stroke-linejoin="miter" d="M 0.000700977 0.000182306 L 1213.563261 0.000182306 L 1213.563261 392.343952 L 0.000700977 392.343952 Z M 0.000700977 0.000182306 " stroke="#ffffff" stroke-width="16" stroke-opacity="1" stroke-miterlimit="4"/></g><path stroke-linecap="butt" transform="matrix(1.782336, 0, 0, 1.782336, 597.678477, 237.774428)" fill="none" stroke-linejoin="miter" d="M 75.255218 78.569944 C 75.255218 79.6833 75.255218 80.912813 75.255218 82.258483 C 75.255218 83.582237 75.255218 84.715318 75.255218 85.662109 C 75.255218 86.354669 75.274943 87.393509 75.316585 88.780821 C 75.360417 90.146216 75.421784 91.627769 75.507258 93.225479 C 75.59054 94.820997 75.654098 96.175434 75.695739 97.28879 C 75.737381 98.404338 75.759297 98.961016 75.759297 98.961016 C 75.759297 99.653576 75.421784 99.999856 74.75114 99.999856 L 4.91654 99.999856 C 3.697985 99.999856 3.130349 99.401536 3.213632 98.202706 C 3.487587 91.732968 3.645386 85.252271 3.687027 78.760617 C 3.728668 72.268962 3.792226 65.755391 3.875509 59.222095 C 3.960983 52.855364 4.191106 46.446992 4.57026 39.996979 C 4.96914 33.527241 4.695184 27.10791 3.750585 20.743371 C 3.665111 20.217376 3.792226 19.765897 4.127548 19.388934 C 4.465061 19.009779 4.894624 18.821298 5.420619 18.821298 L 74.214187 18.821298 C 74.740182 18.821298 75.086462 19.073337 75.255218 19.577415 C 75.255218 19.660698 75.233302 20.050811 75.191661 20.743371 C 75.150019 21.435931 75.086462 22.130683 75.003179 22.823243 C 75.003179 23.244039 74.961538 24.230279 74.876064 25.786348 C 74.792781 27.340225 74.718265 28.957659 74.656899 30.638651 C 74.613066 32.297727 74.593341 33.557924 74.593341 34.41924 C 74.593341 35.280557 74.634983 36.341314 74.718265 37.603702 C 74.823464 38.841981 74.939621 39.955337 75.064545 40.94377 C 75.191661 41.93001 75.255218 42.425322 75.255218 42.425322 C 75.255218 43.117882 74.865106 43.464162 74.089263 43.464162 C 74.089263 43.464162 73.247671 43.444437 71.566679 43.400605 C 69.887878 43.358963 67.755407 43.339239 65.169265 43.339239 C 62.607231 43.339239 59.87644 43.339239 56.976893 43.339239 C 54.099262 43.339239 51.429838 43.38088 48.973003 43.464162 C 46.535893 43.547445 44.622586 43.67456 43.237466 43.843317 C 41.955353 44.009882 40.642557 44.399995 39.296887 45.009273 C 37.973133 45.61855 37.227973 46.699031 37.059217 48.2551 C 36.954018 49.199699 37.24989 49.997458 37.94245 50.650569 C 38.63501 51.279571 39.371403 51.763925 40.149437 52.099246 C 40.568041 52.182529 41.913712 52.27677 44.182065 52.381969 C 46.472335 52.467443 49.214084 52.509084 52.407312 52.509084 C 55.60054 52.509084 58.804726 52.487168 62.01987 52.445527 C 65.254739 52.403885 67.98553 52.381969 70.212242 52.381969 C 72.46087 52.381969 73.751749 52.381969 74.089263 52.381969 C 74.865106 52.381969 75.255218 52.719482 75.255218 53.392317 L 75.255218 64.105082 C 75.255218 65.051873 75.255218 65.871548 75.255218 66.564108 C 75.255218 67.256668 75.255218 67.993061 75.255218 68.768904 C 75.255218 69.463656 74.865106 69.809936 74.089263 69.809936 C 72.618669 69.809936 70.56948 69.788019 67.943888 69.746378 C 65.338022 69.68282 62.629147 69.610496 59.812883 69.527213 C 57.018534 69.441739 54.498142 69.378181 52.249513 69.33654 C 50.022801 69.294899 48.53029 69.275174 47.774173 69.275174 C 46.912856 69.358457 45.852099 69.400098 44.591903 69.400098 C 43.351432 69.400098 42.165751 69.579813 41.030479 69.937051 C 39.917123 70.272373 39.108405 70.953975 38.604327 71.984048 C 37.74301 73.623399 37.867934 74.977836 38.983482 76.049551 C 40.096838 77.121266 41.346076 77.835742 42.733387 78.192981 C 43.594704 78.359546 45.358979 78.44502 48.026212 78.44502 C 50.695636 78.44502 53.720107 78.381462 57.101817 78.256538 C 60.505443 78.129423 63.773186 78.004499 66.902857 77.877384 C 70.054443 77.730543 72.449912 77.614386 74.089263 77.531104 C 74.865106 77.531104 75.255218 77.877384 75.255218 78.569944 Z M 75.255218 78.569944 " stroke="#000000" stroke-width="9.681525" stroke-opacity="1" stroke-miterlimit="4"/><g fill="#ffffff" fill-opacity="1"><g transform="translate(597.678477, 416.00807)"><g><path d="M 134.125 -38.1875 C 134.125 -36.195312 134.125 -34.007812 134.125 -31.625 C 134.125 -29.25 134.125 -27.21875 134.125 -25.53125 C 134.125 -24.3125 134.160156 -22.472656 134.234375 -20.015625 C 134.316406 -17.554688 134.429688 -14.910156 134.578125 -12.078125 C 134.734375 -9.242188 134.847656 -6.828125 134.921875 -4.828125 C 135.003906 -2.835938 135.046875 -1.84375 135.046875 -1.84375 C 135.046875 -0.613281 134.429688 0 133.203125 0 L 8.75 0 C 6.59375 0 5.59375 -1.070312 5.75 -3.21875 C 6.207031 -14.71875 6.472656 -26.257812 6.546875 -37.84375 C 6.628906 -49.425781 6.75 -61.046875 6.90625 -72.703125 C 7.050781 -84.046875 7.46875 -95.46875 8.15625 -106.96875 C 8.851562 -118.476562 8.359375 -129.910156 6.671875 -141.265625 C 6.515625 -142.179688 6.742188 -142.984375 7.359375 -143.671875 C 7.972656 -144.359375 8.738281 -144.703125 9.65625 -144.703125 L 132.28125 -144.703125 C 133.207031 -144.703125 133.820312 -144.242188 134.125 -143.328125 C 134.125 -143.171875 134.082031 -142.476562 134 -141.25 C 133.925781 -140.03125 133.816406 -138.804688 133.671875 -137.578125 C 133.671875 -136.804688 133.59375 -135.039062 133.4375 -132.28125 C 133.28125 -129.519531 133.160156 -126.644531 133.078125 -123.65625 C 133.003906 -120.664062 132.96875 -118.40625 132.96875 -116.875 C 132.96875 -115.34375 133.046875 -113.460938 133.203125 -111.234375 C 133.359375 -109.015625 133.550781 -107.019531 133.78125 -105.25 C 134.007812 -103.488281 134.125 -102.609375 134.125 -102.609375 C 134.125 -101.378906 133.4375 -100.765625 132.0625 -100.765625 C 132.0625 -100.765625 130.5625 -100.800781 127.5625 -100.875 C 124.570312 -100.957031 120.773438 -101 116.171875 -101 C 111.578125 -101 106.707031 -101 101.5625 -101 C 96.425781 -101 91.671875 -100.921875 87.296875 -100.765625 C 82.929688 -100.609375 79.523438 -100.378906 77.078125 -100.078125 C 74.773438 -99.765625 72.429688 -99.070312 70.046875 -98 C 67.671875 -96.925781 66.332031 -95.007812 66.03125 -92.25 C 65.875 -90.5625 66.410156 -89.140625 67.640625 -87.984375 C 68.867188 -86.835938 70.171875 -85.960938 71.546875 -85.359375 C 72.316406 -85.203125 74.734375 -85.046875 78.796875 -84.890625 C 82.859375 -84.734375 87.726562 -84.65625 93.40625 -84.65625 C 99.082031 -84.65625 104.796875 -84.691406 110.546875 -84.765625 C 116.296875 -84.847656 121.164062 -84.890625 125.15625 -84.890625 C 129.144531 -84.890625 131.445312 -84.890625 132.0625 -84.890625 C 133.4375 -84.890625 134.125 -84.273438 134.125 -83.046875 L 134.125 -63.953125 C 134.125 -62.265625 134.125 -60.804688 134.125 -59.578125 C 134.125 -58.359375 134.125 -57.054688 134.125 -55.671875 C 134.125 -54.441406 133.4375 -53.828125 132.0625 -53.828125 C 129.445312 -53.828125 125.800781 -53.863281 121.125 -53.9375 C 116.445312 -54.019531 111.613281 -54.140625 106.625 -54.296875 C 101.644531 -54.453125 97.160156 -54.566406 93.171875 -54.640625 C 89.179688 -54.710938 86.5 -54.75 85.125 -54.75 C 83.59375 -54.601562 81.710938 -54.53125 79.484375 -54.53125 C 77.265625 -54.53125 75.15625 -54.222656 73.15625 -53.609375 C 71.164062 -52.992188 69.707031 -51.765625 68.78125 -49.921875 C 67.25 -47.003906 67.476562 -44.585938 69.46875 -42.671875 C 71.46875 -40.753906 73.695312 -39.488281 76.15625 -38.875 C 77.6875 -38.570312 80.828125 -38.421875 85.578125 -38.421875 C 90.335938 -38.421875 95.742188 -38.535156 101.796875 -38.765625 C 107.859375 -38.992188 113.6875 -39.222656 119.28125 -39.453125 C 124.882812 -39.679688 129.144531 -39.875 132.0625 -40.03125 C 133.4375 -40.03125 134.125 -39.414062 134.125 -38.1875 Z M 134.125 -38.1875 "/></g></g></g><path stroke-linecap="butt" transform="matrix(1.782336, 0, 0, 1.782336, 509.063834, 237.774428)" fill="none" stroke-linejoin="miter" d="M 74.876828 18.821298 C 74.960111 18.90458 75.045585 19.031696 75.128867 19.198261 C 75.297624 20.920894 75.35899 22.360806 75.317349 23.515803 C 75.275708 24.6708 75.21215 25.963871 75.128867 27.392824 C 75.045585 28.821777 75.001752 30.954248 75.001752 33.790238 C 75.001752 34.820312 75.087226 36.321589 75.253791 38.296262 C 75.422548 40.270934 75.549663 41.772212 75.632946 42.802285 C 75.632946 43.58032 75.245025 43.968241 74.46699 43.968241 C 71.545527 43.884958 68.1945 43.738118 64.413911 43.52772 C 60.633322 43.317322 57.082856 43.128841 53.762513 42.960084 C 50.44217 42.771602 48.057659 42.677361 46.608981 42.677361 C 43.415754 42.760644 40.632364 43.023642 38.25662 43.464162 C 35.904984 43.884958 34.72807 44.871199 34.72807 46.427267 C 34.72807 48.064427 35.179549 49.063817 36.082507 49.421055 C 36.985465 49.756377 37.785416 49.966775 38.477976 50.050058 C 40.790162 50.470854 42.721002 50.617694 44.27707 50.49277 C 45.830947 50.365655 47.985335 50.387571 50.738042 50.554136 C 53.574032 50.722893 56.36838 51.110814 59.118895 51.720092 C 61.871602 52.329369 64.319671 53.539158 66.4631 55.345074 C 67.681655 56.375147 68.994451 57.687943 70.401488 59.283461 C 71.830441 60.859254 73.038037 63.160483 74.02647 66.184954 C 75.01271 69.1897 75.50583 73.443684 75.50583 78.949098 C 75.50583 80.167653 75.223108 81.942886 74.655472 84.274797 C 74.109752 86.584792 73.016121 88.991219 71.378962 91.491887 C 70.600927 92.605243 69.351689 93.834756 67.629056 95.178235 C 65.906422 96.501989 63.973391 97.510146 61.829961 98.202706 C 58.993971 99.064023 56.147024 99.537418 53.289118 99.622893 C 50.453128 99.706175 48.395173 99.747816 47.11306 99.747816 C 46.777738 99.747816 45.506584 99.769733 43.299596 99.811374 C 41.114526 99.853015 38.405651 99.874932 35.168591 99.874932 C 31.955638 99.874932 28.582695 99.894657 25.054146 99.936298 C 21.523404 99.977939 18.183336 99.999856 15.03175 99.999856 C 11.90208 99.999856 9.359771 99.999856 7.404823 99.999856 C 5.471791 99.999856 4.507467 99.999856 4.507467 99.999856 C 3.729433 99.999856 3.341511 99.653576 3.341511 98.961016 C 3.341511 97.930942 3.361236 96.900869 3.402877 95.870795 C 3.466435 94.842913 3.540951 93.81284 3.624234 92.782766 C 3.79299 90.198816 3.854356 87.595141 3.812715 84.967358 C 3.771074 82.341766 3.749157 79.735899 3.749157 77.151949 C 3.749157 76.376106 4.13927 76.027635 4.915113 76.113109 C 5.861904 76.196391 6.994985 76.238033 8.318739 76.238033 C 9.664409 76.238033 10.893923 76.259949 12.007279 76.30159 C 13.120635 76.343232 13.854836 76.365148 14.212074 76.365148 C 15.494187 76.470347 17.247504 76.542671 19.476407 76.584313 C 21.722844 76.628146 24.096396 76.606229 26.597064 76.522947 C 29.097732 76.417748 31.440601 76.279674 33.625672 76.113109 C 35.810743 75.944352 37.51146 75.692313 38.730015 75.356991 C 40.538123 74.914279 41.482722 73.792156 41.566005 71.984048 C 41.651479 70.953975 41.156167 70.250456 40.084452 69.873493 C 39.014929 69.474614 37.699942 69.275174 36.146065 69.275174 C 34.592188 69.275174 33.036119 69.33654 31.482243 69.463656 C 29.948091 69.588579 28.751452 69.652137 27.890135 69.652137 C 25.137428 69.840619 22.448279 69.746378 19.822687 69.369415 C 17.194904 68.970535 14.716153 67.993061 12.384242 66.436993 C 10.661608 65.323637 9.127456 63.885917 7.783977 62.121642 C 6.460223 60.355176 5.463024 58.527343 4.790189 56.638145 C 3.319595 52.750165 2.773875 48.706579 3.150838 44.505194 C 3.549718 40.281893 4.610474 36.279948 6.335299 32.497167 C 7.363181 30.25073 8.645294 28.221266 10.179446 26.41535 C 11.733323 24.609434 13.591838 23.191439 15.757184 22.161366 C 17.563101 21.300049 19.432574 20.532973 21.365606 19.860138 C 23.298637 19.167578 25.253585 18.821298 27.228258 18.821298 Z M 74.876828 18.821298 " stroke="#000000" stroke-width="9.681525" stroke-opacity="1" stroke-miterlimit="4"/><g fill="#ffffff" fill-opacity="1"><g transform="translate(509.063834, 416.00807)"><g><path d="M 133.4375 -144.703125 C 133.59375 -144.554688 133.742188 -144.328125 133.890625 -144.015625 C 134.203125 -140.953125 134.316406 -138.382812 134.234375 -136.3125 C 134.160156 -134.238281 134.046875 -131.9375 133.890625 -129.40625 C 133.742188 -126.875 133.671875 -123.078125 133.671875 -118.015625 C 133.671875 -116.179688 133.820312 -113.5 134.125 -109.96875 C 134.4375 -106.4375 134.664062 -103.753906 134.8125 -101.921875 C 134.8125 -100.535156 134.125 -99.84375 132.75 -99.84375 C 127.53125 -100 121.546875 -100.269531 114.796875 -100.65625 C 108.046875 -101.039062 101.71875 -101.382812 95.8125 -101.6875 C 89.914062 -101.988281 85.660156 -102.140625 83.046875 -102.140625 C 77.378906 -101.992188 72.4375 -101.535156 68.21875 -100.765625 C 64 -99.992188 61.890625 -98.226562 61.890625 -95.46875 C 61.890625 -92.5625 62.691406 -90.800781 64.296875 -90.1875 C 65.910156 -89.570312 67.332031 -89.1875 68.5625 -89.03125 C 72.695312 -88.269531 76.144531 -88.003906 78.90625 -88.234375 C 81.664062 -88.460938 85.503906 -88.421875 90.421875 -88.109375 C 95.472656 -87.804688 100.453125 -87.117188 105.359375 -86.046875 C 110.273438 -84.972656 114.648438 -82.828125 118.484375 -79.609375 C 120.628906 -77.765625 122.96875 -75.421875 125.5 -72.578125 C 128.03125 -69.742188 130.175781 -65.640625 131.9375 -60.265625 C 133.707031 -54.898438 134.59375 -47.3125 134.59375 -37.5 C 134.59375 -35.351562 134.09375 -32.207031 133.09375 -28.0625 C 132.09375 -23.925781 130.132812 -19.632812 127.21875 -15.1875 C 125.84375 -13.1875 123.617188 -11 120.546875 -8.625 C 117.484375 -6.25 114.035156 -4.445312 110.203125 -3.21875 C 105.140625 -1.6875 100.078125 -0.84375 95.015625 -0.6875 C 89.953125 -0.53125 86.269531 -0.453125 83.96875 -0.453125 C 83.351562 -0.453125 81.085938 -0.414062 77.171875 -0.34375 C 73.265625 -0.269531 68.4375 -0.234375 62.6875 -0.234375 C 56.9375 -0.234375 50.914062 -0.191406 44.625 -0.109375 C 38.34375 -0.0351562 32.398438 0 26.796875 0 C 21.203125 0 16.675781 0 13.21875 0 C 9.769531 0 8.046875 0 8.046875 0 C 6.671875 0 5.984375 -0.613281 5.984375 -1.84375 C 5.984375 -3.675781 6.019531 -5.515625 6.09375 -7.359375 C 6.175781 -9.203125 6.289062 -11.046875 6.4375 -12.890625 C 6.75 -17.484375 6.863281 -22.117188 6.78125 -26.796875 C 6.707031 -31.472656 6.671875 -36.113281 6.671875 -40.71875 C 6.671875 -42.101562 7.363281 -42.71875 8.75 -42.5625 C 10.425781 -42.40625 12.453125 -42.328125 14.828125 -42.328125 C 17.210938 -42.328125 19.398438 -42.285156 21.390625 -42.203125 C 23.390625 -42.128906 24.695312 -42.09375 25.3125 -42.09375 C 27.601562 -41.945312 30.742188 -41.832031 34.734375 -41.75 C 38.722656 -41.675781 42.941406 -41.710938 47.390625 -41.859375 C 51.835938 -42.015625 56.015625 -42.242188 59.921875 -42.546875 C 63.835938 -42.859375 66.867188 -43.320312 69.015625 -43.9375 C 72.234375 -44.707031 73.921875 -46.703125 74.078125 -49.921875 C 74.234375 -51.765625 73.351562 -53.03125 71.4375 -53.71875 C 69.519531 -54.40625 67.179688 -54.75 64.421875 -54.75 C 61.660156 -54.75 58.898438 -54.632812 56.140625 -54.40625 C 53.378906 -54.175781 51.226562 -54.0625 49.6875 -54.0625 C 44.78125 -53.757812 39.988281 -53.953125 35.3125 -54.640625 C 30.632812 -55.328125 26.226562 -57.050781 22.09375 -59.8125 C 19.019531 -61.8125 16.296875 -64.378906 13.921875 -67.515625 C 11.546875 -70.660156 9.742188 -73.921875 8.515625 -77.296875 C 5.898438 -84.203125 4.9375 -91.410156 5.625 -98.921875 C 6.320312 -106.441406 8.203125 -113.578125 11.265625 -120.328125 C 13.109375 -124.304688 15.410156 -127.90625 18.171875 -131.125 C 20.929688 -134.351562 24.226562 -136.890625 28.0625 -138.734375 C 31.289062 -140.265625 34.628906 -141.640625 38.078125 -142.859375 C 41.523438 -144.085938 45.015625 -144.703125 48.546875 -144.703125 Z M 133.4375 -144.703125 "/></g></g></g><path stroke-linecap="butt" transform="matrix(1.782336, 0, 0, 1.782336, 420.449094, 237.774428)" fill="none" stroke-linejoin="miter" d="M 76.295641 42.550246 C 76.378924 43.497037 76.398648 45.092555 76.357007 47.341184 C 76.315366 49.567896 76.221125 51.805566 76.074285 54.052003 C 75.947169 56.280907 75.758688 57.865466 75.506649 58.812257 C 75.085853 61.058694 74.371376 63.434438 73.363219 65.932914 C 72.376979 68.413857 70.768311 70.818093 68.541599 73.150004 C 66.400361 75.398632 64.50897 77.016067 62.869619 78.004499 C 61.230268 78.99074 59.853915 79.779732 58.740559 80.367093 C 57.355439 81.145127 55.389532 81.815771 52.849415 82.383407 C 50.307106 82.951043 47.84808 83.382798 45.474527 83.676478 C 43.1207 83.970159 41.472582 84.116999 40.525791 84.116999 C 38.551118 84.116999 37.279964 84.485195 36.714519 85.219397 C 36.166608 85.95579 35.800603 87.226944 35.60993 89.03286 C 35.443365 90.146216 35.35789 91.627769 35.35789 93.477518 C 35.35789 95.325075 35.35789 96.984151 35.35789 98.454745 C 35.35789 99.484819 34.969969 99.999856 34.191935 99.999856 L 4.633209 99.999856 C 3.771892 99.999856 3.340138 99.484819 3.340138 98.454745 C 3.340138 98.454745 3.362054 97.426864 3.403696 95.366717 C 3.467253 93.286845 3.539578 90.744536 3.625052 87.741981 C 3.708334 84.737235 3.771892 81.77413 3.813533 78.854858 C 3.855175 75.913669 3.877091 73.496284 3.877091 71.607085 C 3.960374 64.379038 3.938457 57.131265 3.813533 49.861576 C 3.686418 42.591887 3.625052 35.291515 3.625052 27.96046 C 3.539578 25.124471 3.497936 22.28629 3.497936 19.4503 C 3.497936 19.031696 3.749976 18.821298 4.254054 18.821298 L 54.076737 18.821298 C 55.632805 18.821298 57.502279 19.10402 59.68735 19.671656 C 61.892145 20.217376 64.456371 21.604688 67.375643 23.8314 C 69.350316 25.385277 70.937067 27.287625 72.133706 29.536254 C 73.352261 31.762966 74.277135 34.042277 74.908329 36.374188 C 75.559248 38.684183 76.021685 40.74433 76.295641 42.550246 Z M 43.771618 43.464162 C 43.771618 42.854885 43.719019 42.076851 43.616012 41.132251 C 43.530537 40.187652 43.225899 39.357018 42.702095 38.642542 C 42.195825 37.90834 41.345467 37.540144 40.148828 37.540144 C 38.949998 37.540144 38.068956 37.928065 37.50132 38.706099 C 36.933684 39.462217 36.587404 40.292851 36.460288 41.195809 C 36.335364 42.098767 36.271807 42.813244 36.271807 43.339239 C 36.188524 44.115081 36.124966 45.386236 36.083325 47.15051 C 36.041684 48.916977 36.000043 50.681252 35.95621 52.445527 C 35.914569 54.209801 35.936485 55.428356 36.019767 56.101192 C 36.019767 56.710469 36.083325 57.508228 36.208249 58.49666 C 36.335364 59.482901 36.650961 60.388051 37.15504 61.207726 C 37.678843 62.02521 38.59276 62.435048 39.896789 62.435048 C 41.702705 62.435048 42.77442 61.795087 43.109741 60.512974 C 43.447255 59.211137 43.666419 58.170105 43.771618 57.394263 C 43.771618 56.532946 43.793535 55.114951 43.835176 53.138087 C 43.876817 51.163414 43.898734 49.230382 43.898734 47.341184 C 43.898734 45.449793 43.857093 44.156722 43.771618 43.464162 Z M 43.771618 43.464162 " stroke="#000000" stroke-width="9.681525" stroke-opacity="1" stroke-miterlimit="4"/><g fill="#ffffff" fill-opacity="1"><g transform="translate(420.449094, 416.00807)"><g><path d="M 135.96875 -102.375 C 136.125 -100.6875 136.160156 -97.847656 136.078125 -93.859375 C 136.003906 -89.878906 135.851562 -85.894531 135.625 -81.90625 C 135.394531 -77.914062 135.050781 -75.078125 134.59375 -73.390625 C 133.820312 -69.398438 132.550781 -65.179688 130.78125 -60.734375 C 129.019531 -56.285156 126.144531 -51.992188 122.15625 -47.859375 C 118.320312 -43.867188 114.945312 -40.988281 112.03125 -39.21875 C 109.125 -37.457031 106.671875 -36.039062 104.671875 -34.96875 C 102.222656 -33.59375 98.734375 -32.40625 94.203125 -31.40625 C 89.679688 -30.40625 85.3125 -29.632812 81.09375 -29.09375 C 76.875 -28.5625 73.921875 -28.296875 72.234375 -28.296875 C 68.710938 -28.296875 66.453125 -27.644531 65.453125 -26.34375 C 64.453125 -25.039062 63.800781 -22.78125 63.5 -19.5625 C 63.1875 -17.5625 63.03125 -14.910156 63.03125 -11.609375 C 63.03125 -8.316406 63.03125 -5.367188 63.03125 -2.765625 C 63.03125 -0.921875 62.34375 0 60.96875 0 L 8.28125 0 C 6.75 0 5.984375 -0.921875 5.984375 -2.765625 C 5.984375 -2.765625 6.019531 -4.601562 6.09375 -8.28125 C 6.175781 -11.957031 6.289062 -16.476562 6.4375 -21.84375 C 6.59375 -27.21875 6.707031 -32.507812 6.78125 -37.71875 C 6.863281 -42.9375 6.90625 -47.234375 6.90625 -50.609375 C 7.050781 -63.492188 7.007812 -76.414062 6.78125 -89.375 C 6.550781 -102.332031 6.4375 -115.332031 6.4375 -128.375 C 6.289062 -133.4375 6.21875 -138.5 6.21875 -143.5625 C 6.21875 -144.320312 6.675781 -144.703125 7.59375 -144.703125 L 96.390625 -144.703125 C 99.148438 -144.703125 102.484375 -144.203125 106.390625 -143.203125 C 110.304688 -142.210938 114.875 -139.722656 120.09375 -135.734375 C 123.625 -132.972656 126.460938 -129.597656 128.609375 -125.609375 C 130.753906 -121.617188 132.398438 -117.550781 133.546875 -113.40625 C 134.703125 -109.269531 135.507812 -105.59375 135.96875 -102.375 Z M 77.984375 -100.765625 C 77.984375 -101.835938 77.90625 -103.21875 77.75 -104.90625 C 77.601562 -106.59375 77.066406 -108.085938 76.140625 -109.390625 C 75.222656 -110.691406 73.691406 -111.34375 71.546875 -111.34375 C 69.398438 -111.34375 67.828125 -110.648438 66.828125 -109.265625 C 65.835938 -107.890625 65.222656 -106.394531 64.984375 -104.78125 C 64.753906 -103.175781 64.640625 -101.914062 64.640625 -101 C 64.492188 -99.613281 64.378906 -97.347656 64.296875 -94.203125 C 64.222656 -91.066406 64.144531 -87.925781 64.0625 -84.78125 C 63.988281 -81.632812 64.03125 -79.445312 64.1875 -78.21875 C 64.1875 -77.144531 64.300781 -75.722656 64.53125 -73.953125 C 64.757812 -72.191406 65.332031 -70.582031 66.25 -69.125 C 67.175781 -67.675781 68.789062 -66.953125 71.09375 -66.953125 C 74.3125 -66.953125 76.226562 -68.097656 76.84375 -70.390625 C 77.457031 -72.691406 77.835938 -74.535156 77.984375 -75.921875 C 77.984375 -77.453125 78.019531 -79.976562 78.09375 -83.5 C 78.175781 -87.03125 78.21875 -90.484375 78.21875 -93.859375 C 78.21875 -97.234375 78.140625 -99.535156 77.984375 -100.765625 Z M 77.984375 -100.765625 "/></g></g></g><path stroke-linecap="butt" transform="matrix(1.782336, 0, 0, 1.782336, 364.350892, 237.774428)" fill="none" stroke-linejoin="miter" d="M 3.875206 18.821298 L 39.612181 18.821298 C 40.578697 18.821298 41.063051 19.336334 41.063051 20.364216 C 40.789095 22.864884 40.631296 26.310151 40.589655 30.702209 C 40.548014 35.072351 40.526097 39.819455 40.526097 44.945715 C 40.526097 50.071974 40.567739 55.071118 40.653213 59.945338 C 40.736495 64.799834 40.800053 69.073543 40.841694 72.773041 C 40.883336 76.470347 40.957852 79.054297 41.063051 80.524892 C 41.063051 83.529638 41.146333 86.512468 41.31509 89.473381 C 41.481655 92.436486 41.692053 95.430274 41.944092 98.454745 C 42.029566 99.484819 41.556171 99.999856 40.526097 99.999856 L 4.002321 99.999856 C 3.666999 99.999856 3.539884 99.789458 3.623166 99.368662 C 3.791923 98.235581 3.919039 96.166667 4.002321 93.161921 C 4.085604 90.157175 4.127245 86.784232 4.127245 83.045284 C 4.127245 79.28442 4.10752 75.755871 4.065879 72.457444 C 4.024238 69.1371 3.96068 66.616708 3.875206 64.894074 C 3.875206 62.833927 3.855481 60.125053 3.81384 56.763069 C 3.772198 53.401084 3.728365 49.789252 3.686724 45.923189 C 3.645083 42.035209 3.603442 38.265579 3.5618 34.609914 C 3.517967 30.954248 3.46756 27.750062 3.404002 24.997355 C 3.362361 22.244648 3.340444 20.35545 3.340444 19.325376 C 3.445643 19.239902 3.623166 19.073337 3.875206 18.821298 Z M 3.875206 18.821298 " stroke="#000000" stroke-width="9.681525" stroke-opacity="1" stroke-miterlimit="4"/><g fill="#ffffff" fill-opacity="1"><g transform="translate(364.350892, 416.00807)"><g><path d="M 6.90625 -144.703125 L 70.625 -144.703125 C 72.3125 -144.703125 73.15625 -143.785156 73.15625 -141.953125 C 72.695312 -137.503906 72.425781 -131.367188 72.34375 -123.546875 C 72.269531 -115.722656 72.234375 -107.25 72.234375 -98.125 C 72.234375 -89 72.3125 -80.101562 72.46875 -71.4375 C 72.625 -62.769531 72.738281 -55.140625 72.8125 -48.546875 C 72.894531 -41.953125 73.007812 -37.347656 73.15625 -34.734375 C 73.15625 -29.367188 73.304688 -24.039062 73.609375 -18.75 C 73.921875 -13.457031 74.304688 -8.128906 74.765625 -2.765625 C 74.921875 -0.921875 74.078125 0 72.234375 0 L 7.125 0 C 6.519531 0 6.289062 -0.382812 6.4375 -1.15625 C 6.75 -3.144531 6.976562 -6.820312 7.125 -12.1875 C 7.28125 -17.5625 7.359375 -23.582031 7.359375 -30.25 C 7.359375 -36.925781 7.316406 -43.210938 7.234375 -49.109375 C 7.160156 -55.015625 7.050781 -59.503906 6.90625 -62.578125 C 6.90625 -66.253906 6.863281 -71.082031 6.78125 -77.0625 C 6.707031 -83.050781 6.628906 -89.492188 6.546875 -96.390625 C 6.472656 -103.296875 6.398438 -110.003906 6.328125 -116.515625 C 6.253906 -123.035156 6.175781 -128.75 6.09375 -133.65625 C 6.019531 -138.570312 5.984375 -141.945312 5.984375 -143.78125 C 6.140625 -143.9375 6.445312 -144.242188 6.90625 -144.703125 Z M 6.90625 -144.703125 "/></g></g></g><g clip-path="url(#d542e2dc91)"><path fill="#ffffff" d="M 395.421875 271.242188 L 452.636719 271.242188 L 452.636719 416.285156 L 395.421875 416.285156 Z M 395.421875 271.242188 " fill-opacity="1" fill-rule="nonzero"/></g><g clip-path="url(#1df026d072)"><g clip-path="url(#6a807837ff)"><g clip-path="url(#5e1fb66838)"><path fill="#000000" d="M 421.304688 269.523438 L 400.4375 347.023438 L 424.976562 346.191406 L 414.730469 419.742188 L 465.625 322.773438 L 442.441406 323.324219 L 472.789062 268.871094 Z M 421.304688 269.523438 " fill-opacity="1" fill-rule="nonzero"/></g></g></g><g clip-path="url(#5ddcfe5c2c)"><path fill="#000000" d="M 166.5625 443.355469 L 601.328125 443.355469 L 601.328125 514.976562 L 166.5625 514.976562 Z M 166.5625 443.355469 " fill-opacity="1" fill-rule="nonzero"/></g><path stroke-linecap="butt" transform="matrix(1.782336, 0, 0, 1.782336, 260.965596, 237.774428)" fill="none" stroke-linejoin="miter" d="M 75.758196 86.952989 C 75.758196 87.562266 75.780113 88.517824 75.821754 89.821853 C 75.863395 91.101774 75.905036 92.458403 75.948869 93.887356 C 76.010235 95.294392 76.062835 96.512947 76.104476 97.543021 C 76.148309 98.570903 76.168034 99.085939 76.168034 99.085939 C 76.168034 99.695217 75.905036 99.999856 75.381233 99.999856 L 4.253562 99.999856 C 3.834958 99.999856 3.62456 99.695217 3.62456 99.085939 L 3.62456 97.036751 C 3.62456 96.953468 3.62456 96.911827 3.62456 96.911827 C 3.62456 96.74307 3.62456 96.565547 3.62456 96.374874 L 3.62456 56.101192 C 3.62456 52.761124 3.62456 49.410097 3.62456 46.048113 C 3.62456 42.686128 3.707843 39.326335 3.876599 35.964351 C 3.876599 32.959604 3.834958 29.998691 3.749484 27.077227 C 3.749484 25.77539 3.729759 24.52396 3.688118 23.327321 C 3.644285 22.130683 3.666201 20.879253 3.749484 19.577415 C 3.834958 19.073337 4.086997 18.821298 4.505602 18.821298 L 40.77953 18.821298 C 41.220051 18.821298 41.441407 19.114978 41.441407 19.702339 C 41.441407 22.455046 41.52469 25.185837 41.693447 27.896903 C 41.860012 30.607968 41.987127 33.338759 42.07041 36.089274 C 42.155884 37.897382 42.197525 39.683573 42.197525 41.447848 C 42.197525 43.212123 42.197525 44.956673 42.197525 46.679307 C 42.280808 47.897862 42.280808 49.651178 42.197525 51.941448 C 42.112051 54.209801 42.028768 56.427747 41.945486 58.590901 C 41.860012 60.734331 41.860012 62.141367 41.945486 62.814202 C 41.945486 63.947283 41.945486 65.115431 41.945486 66.312069 C 41.945486 67.508708 42.250125 68.49714 42.859402 69.275174 C 43.194724 69.798977 44.183156 70.145257 45.820315 70.314014 C 47.459666 70.482771 49.1823 70.566053 50.988216 70.566053 C 52.796324 70.566053 54.131036 70.566053 54.992353 70.566053 C 55.85367 70.566053 57.18619 70.544137 58.994298 70.502496 C 60.800214 70.460854 62.755162 70.397297 64.854759 70.314014 C 66.976272 70.230732 69.003544 70.145257 70.936576 70.061975 C 72.869607 69.978692 74.392801 69.937051 75.506157 69.937051 C 75.948869 70.020334 76.126393 70.272373 76.04311 70.693169 C 76.04311 70.859734 76.04311 71.510653 76.04311 72.645925 C 76.04311 73.759281 76.010235 74.925237 75.948869 76.143792 C 75.905036 77.342622 75.885312 78.234622 75.885312 78.821983 C 75.799837 80.209295 75.758196 81.596606 75.758196 82.981727 C 75.758196 84.347122 75.758196 85.670876 75.758196 86.952989 Z M 75.758196 86.952989 " stroke="#000000" stroke-width="9.681525" stroke-opacity="1" stroke-miterlimit="4"/><g fill="#ffffff" fill-opacity="1"><g transform="translate(260.965596, 416.00807)"><g><path d="M 135.046875 -23.234375 C 135.046875 -22.160156 135.082031 -20.472656 135.15625 -18.171875 C 135.238281 -15.867188 135.316406 -13.453125 135.390625 -10.921875 C 135.460938 -8.390625 135.535156 -6.203125 135.609375 -4.359375 C 135.691406 -2.523438 135.734375 -1.609375 135.734375 -1.609375 C 135.734375 -0.535156 135.273438 0 134.359375 0 L 7.59375 0 C 6.820312 0 6.4375 -0.535156 6.4375 -1.609375 L 6.4375 -5.296875 C 6.4375 -5.441406 6.4375 -5.515625 6.4375 -5.515625 C 6.4375 -5.828125 6.4375 -6.132812 6.4375 -6.4375 L 6.4375 -78.21875 C 6.4375 -84.195312 6.4375 -90.175781 6.4375 -96.15625 C 6.4375 -102.144531 6.59375 -108.128906 6.90625 -114.109375 C 6.90625 -119.472656 6.828125 -124.765625 6.671875 -129.984375 C 6.671875 -132.285156 6.628906 -134.507812 6.546875 -136.65625 C 6.472656 -138.800781 6.515625 -141.023438 6.671875 -143.328125 C 6.828125 -144.242188 7.285156 -144.703125 8.046875 -144.703125 L 72.703125 -144.703125 C 73.460938 -144.703125 73.84375 -144.164062 73.84375 -143.09375 C 73.84375 -138.1875 73.992188 -133.316406 74.296875 -128.484375 C 74.609375 -123.660156 74.84375 -118.789062 75 -113.875 C 75.15625 -110.65625 75.234375 -107.472656 75.234375 -104.328125 C 75.234375 -101.179688 75.234375 -98.078125 75.234375 -95.015625 C 75.378906 -92.867188 75.375 -89.765625 75.21875 -85.703125 C 75.070312 -81.640625 74.921875 -77.6875 74.765625 -73.84375 C 74.617188 -70.007812 74.617188 -67.484375 74.765625 -66.265625 C 74.765625 -64.265625 74.765625 -62.191406 74.765625 -60.046875 C 74.765625 -57.898438 75.300781 -56.132812 76.375 -54.75 C 76.988281 -53.832031 78.753906 -53.21875 81.671875 -52.90625 C 84.585938 -52.601562 87.65625 -52.453125 90.875 -52.453125 C 94.09375 -52.453125 96.46875 -52.453125 98 -52.453125 C 99.539062 -52.453125 101.921875 -52.488281 105.140625 -52.5625 C 108.359375 -52.644531 111.847656 -52.757812 115.609375 -52.90625 C 119.367188 -53.0625 122.972656 -53.21875 126.421875 -53.375 C 129.867188 -53.53125 132.59375 -53.609375 134.59375 -53.609375 C 135.351562 -53.453125 135.65625 -52.988281 135.5 -52.21875 C 135.5 -51.914062 135.5 -50.765625 135.5 -48.765625 C 135.5 -46.773438 135.460938 -44.707031 135.390625 -42.5625 C 135.316406 -40.414062 135.28125 -38.804688 135.28125 -37.734375 C 135.125 -35.273438 135.046875 -32.816406 135.046875 -30.359375 C 135.046875 -27.910156 135.046875 -25.535156 135.046875 -23.234375 Z M 135.046875 -23.234375 "/></g></g></g><path stroke-linecap="butt" transform="matrix(1.782336, 0, 0, 1.782336, 142.141021, 237.774428)" fill="none" stroke-linejoin="miter" d="M 75.506357 65.807991 C 75.506357 66.838064 75.486632 68.402899 75.442799 70.502496 C 75.401158 72.604284 75.359516 74.925237 75.317875 77.467546 C 75.276234 80.009855 75.276234 82.488606 75.317875 84.905991 C 75.359516 87.299269 75.464715 89.317774 75.633472 90.954934 L 75.633472 98.708976 C 75.633472 99.570293 75.201718 99.999856 74.340401 99.999856 L 44.150481 99.999856 C 38.730541 99.999856 34.296842 99.684259 30.851575 99.055256 C 27.406308 98.404338 24.675517 97.604387 22.659203 96.659788 C 20.640697 95.693272 19.023263 94.873596 17.804708 94.200761 C 15.998792 93.06768 14.234517 91.774609 12.511883 90.325931 C 10.78925 88.855337 9.412896 87.299269 8.382823 85.662109 C 6.156111 82.048085 4.7162 78.802258 4.065281 75.924627 C 3.414362 73.044805 3.087807 70.18909 3.087807 67.350909 L 3.087807 51.847207 C 3.087807 51.847207 3.087807 52.088288 3.087807 52.572642 C 3.087807 53.035079 3.087807 53.486558 3.087807 53.927079 C 3.087807 54.347875 3.087807 54.431158 3.087807 54.179118 C 3.087807 53.927079 3.087807 53.107404 3.087807 51.720092 C 3.087807 48.884102 3.298205 46.133587 3.719001 43.464162 C 4.159522 40.796929 4.768799 38.337903 5.546833 36.089274 C 6.239393 33.948037 7.311108 32.015005 8.759786 30.292371 C 10.23038 28.569738 11.786449 26.888746 13.4258 25.249395 C 15.231716 23.63196 17.552669 22.349847 20.388658 21.405248 C 23.224648 20.438732 26.30391 19.765897 29.622062 19.388934 C 32.942405 19.009779 36.188232 18.821298 39.359544 18.821298 L 73.584283 18.821298 C 73.919605 18.821298 74.340401 19.062379 74.84448 19.544541 C 75.370475 20.006978 75.633472 20.408049 75.633472 20.743371 L 75.633472 27.329266 C 75.547998 27.664588 75.486632 28.01306 75.442799 28.370298 C 75.401158 28.70562 75.381433 29.040942 75.381433 29.378455 C 75.295959 30.154298 75.276234 31.730091 75.317875 34.105835 C 75.359516 36.479387 75.401158 39.021696 75.442799 41.730571 C 75.486632 44.441636 75.528273 46.784506 75.569914 48.759178 C 75.611556 50.733851 75.633472 51.720092 75.633472 51.720092 C 75.633472 52.581409 75.243359 53.013163 74.467517 53.013163 C 73.711399 52.92988 72.271488 52.907964 70.149975 52.949605 C 68.048186 52.991246 65.600118 53.035079 62.80577 53.07672 C 60.013613 53.118362 57.260906 53.181919 54.54984 53.265202 C 51.840966 53.348485 49.465222 53.412042 47.426992 53.453684 C 45.410678 53.495325 44.192123 53.517241 43.773518 53.517241 C 41.187376 53.517241 39.328861 54.104602 38.193588 55.281516 C 37.080232 56.436513 36.523554 57.530145 36.523554 58.560218 C 36.523554 60.723372 37.384871 62.321082 39.107504 63.348964 C 40.578099 64.210281 41.765971 64.705593 42.668929 64.830517 C 43.571887 64.957632 44.843041 65.104472 46.482392 65.271037 C 47.512466 65.356512 49.118942 65.398153 51.304013 65.398153 C 53.511 65.398153 55.895511 65.376236 58.457545 65.334595 C 61.041495 65.292954 63.520246 65.251313 65.89599 65.209671 C 68.269543 65.165838 70.244215 65.124197 71.820009 65.082556 C 73.415527 65.040915 74.257119 65.018998 74.340401 65.018998 C 74.949679 65.018998 75.3376 65.281996 75.506357 65.807991 Z M 75.506357 65.807991 " stroke="#000000" stroke-width="9.681525" stroke-opacity="1" stroke-miterlimit="4"/><g fill="#ffffff" fill-opacity="1"><g transform="translate(142.141021, 416.00807)"><g><path d="M 134.59375 -60.96875 C 134.59375 -59.125 134.550781 -56.320312 134.46875 -52.5625 C 134.394531 -48.8125 134.316406 -44.671875 134.234375 -40.140625 C 134.160156 -35.617188 134.160156 -31.207031 134.234375 -26.90625 C 134.316406 -22.613281 134.507812 -19.015625 134.8125 -16.109375 L 134.8125 -2.296875 C 134.8125 -0.765625 134.046875 0 132.515625 0 L 78.6875 0 C 69.019531 0 61.117188 -0.570312 54.984375 -1.71875 C 48.847656 -2.875 43.976562 -4.296875 40.375 -5.984375 C 36.769531 -7.671875 33.894531 -9.128906 31.75 -10.359375 C 28.53125 -12.347656 25.382812 -14.644531 22.3125 -17.25 C 19.25 -19.863281 16.796875 -22.625 14.953125 -25.53125 C 10.960938 -31.976562 8.390625 -37.769531 7.234375 -42.90625 C 6.085938 -48.039062 5.515625 -53.140625 5.515625 -58.203125 L 5.515625 -85.8125 C 5.515625 -85.8125 5.515625 -85.390625 5.515625 -84.546875 C 5.515625 -83.703125 5.515625 -82.894531 5.515625 -82.125 C 5.515625 -81.363281 5.515625 -81.210938 5.515625 -81.671875 C 5.515625 -82.128906 5.515625 -83.585938 5.515625 -86.046875 C 5.515625 -91.109375 5.898438 -96.015625 6.671875 -100.765625 C 7.441406 -105.523438 8.515625 -109.894531 9.890625 -113.875 C 11.117188 -117.707031 13.035156 -121.15625 15.640625 -124.21875 C 18.253906 -127.289062 21.015625 -130.285156 23.921875 -133.203125 C 27.140625 -136.117188 31.28125 -138.421875 36.34375 -140.109375 C 41.40625 -141.796875 46.890625 -142.984375 52.796875 -143.671875 C 58.703125 -144.359375 64.492188 -144.703125 70.171875 -144.703125 L 131.140625 -144.703125 C 131.753906 -144.703125 132.519531 -144.28125 133.4375 -143.4375 C 134.351562 -142.59375 134.8125 -141.867188 134.8125 -141.265625 L 134.8125 -129.53125 C 134.664062 -128.914062 134.550781 -128.300781 134.46875 -127.6875 C 134.394531 -127.070312 134.359375 -126.457031 134.359375 -125.84375 C 134.203125 -124.46875 134.160156 -121.671875 134.234375 -117.453125 C 134.316406 -113.234375 134.394531 -108.707031 134.46875 -103.875 C 134.550781 -99.039062 134.628906 -94.859375 134.703125 -91.328125 C 134.773438 -87.804688 134.8125 -86.046875 134.8125 -86.046875 C 134.8125 -84.515625 134.125 -83.75 132.75 -83.75 C 131.363281 -83.894531 128.789062 -83.929688 125.03125 -83.859375 C 121.28125 -83.785156 116.910156 -83.707031 111.921875 -83.625 C 106.941406 -83.550781 102.035156 -83.4375 97.203125 -83.28125 C 92.367188 -83.125 88.148438 -83.007812 84.546875 -82.9375 C 80.941406 -82.863281 78.753906 -82.828125 77.984375 -82.828125 C 73.390625 -82.828125 70.09375 -81.789062 68.09375 -79.71875 C 66.101562 -77.644531 65.109375 -75.6875 65.109375 -73.84375 C 65.109375 -70.007812 66.640625 -67.175781 69.703125 -65.34375 C 72.316406 -63.800781 74.425781 -62.914062 76.03125 -62.6875 C 77.644531 -62.457031 79.910156 -62.191406 82.828125 -61.890625 C 84.660156 -61.734375 87.53125 -61.65625 91.4375 -61.65625 C 95.351562 -61.65625 99.613281 -61.691406 104.21875 -61.765625 C 108.820312 -61.847656 113.234375 -61.925781 117.453125 -62 C 121.671875 -62.070312 125.195312 -62.144531 128.03125 -62.21875 C 130.863281 -62.300781 132.359375 -62.34375 132.515625 -62.34375 C 133.585938 -62.34375 134.28125 -61.882812 134.59375 -60.96875 Z M 134.59375 -60.96875 "/></g></g></g><path stroke-linecap="butt" transform="matrix(1.782336, 0, 0, 1.782336, 23.316458, 237.774428)" fill="none" stroke-linejoin="miter" d="M 75.25451 78.569944 C 75.25451 79.6833 75.25451 80.912813 75.25451 82.258483 C 75.25451 83.582237 75.25451 84.715318 75.25451 85.662109 C 75.25451 86.354669 75.276427 87.393509 75.318068 88.780821 C 75.359709 90.146216 75.423267 91.627769 75.50655 93.225479 C 75.589832 94.820997 75.65339 96.175434 75.695031 97.28879 C 75.738864 98.404338 75.758589 98.961016 75.758589 98.961016 C 75.758589 99.653576 75.423267 99.999856 74.750432 99.999856 L 4.915832 99.999856 C 3.697277 99.999856 3.129641 99.401536 3.215115 98.202706 C 3.486879 91.732968 3.644678 85.252271 3.686319 78.760617 C 3.730152 72.268962 3.791518 65.755391 3.876992 59.222095 C 3.960275 52.855364 4.190398 46.446992 4.569552 39.996979 C 4.968432 33.527241 4.694476 27.10791 3.749877 20.743371 C 3.666594 20.217376 3.791518 19.765897 4.129031 19.388934 C 4.464353 19.009779 4.896107 18.821298 5.419911 18.821298 L 74.21567 18.821298 C 74.739474 18.821298 75.085754 19.073337 75.25451 19.577415 C 75.25451 19.660698 75.232594 20.050811 75.190953 20.743371 C 75.149311 21.435931 75.085754 22.130683 75.002471 22.823243 C 75.002471 23.244039 74.96083 24.230279 74.877547 25.786348 C 74.792073 27.340225 74.719749 28.957659 74.656191 30.638651 C 74.61455 32.297727 74.592633 33.557924 74.592633 34.41924 C 74.592633 35.280557 74.634275 36.341314 74.719749 37.603702 C 74.824948 38.841981 74.938913 39.955337 75.066029 40.94377 C 75.190953 41.93001 75.25451 42.425322 75.25451 42.425322 C 75.25451 43.117882 74.866589 43.464162 74.088555 43.464162 C 74.088555 43.464162 73.249155 43.444437 71.568162 43.400605 C 69.88717 43.358963 67.754699 43.339239 65.170748 43.339239 C 62.606523 43.339239 59.875732 43.339239 56.976185 43.339239 C 54.098554 43.339239 51.431321 43.38088 48.972295 43.464162 C 46.535185 43.547445 44.62407 43.67456 43.236758 43.843317 C 41.954645 44.009882 40.641849 44.399995 39.298371 45.009273 C 37.974617 45.61855 37.227265 46.699031 37.0607 48.2551 C 36.955501 49.199699 37.249182 49.997458 37.941742 50.650569 C 38.636494 51.279571 39.370695 51.763925 40.148729 52.099246 C 40.569525 52.182529 41.913004 52.27677 44.181357 52.381969 C 46.471627 52.467443 49.213376 52.509084 52.406604 52.509084 C 55.599832 52.509084 58.804018 52.487168 62.019162 52.445527 C 65.254031 52.403885 67.984822 52.381969 70.211534 52.381969 C 72.460162 52.381969 73.753233 52.381969 74.088555 52.381969 C 74.866589 52.381969 75.25451 52.719482 75.25451 53.392317 L 75.25451 64.105082 C 75.25451 65.051873 75.25451 65.871548 75.25451 66.564108 C 75.25451 67.256668 75.25451 67.993061 75.25451 68.768904 C 75.25451 69.463656 74.866589 69.809936 74.088555 69.809936 C 72.617961 69.809936 70.568772 69.788019 67.94318 69.746378 C 65.337314 69.68282 62.628439 69.610496 59.812175 69.527213 C 57.017826 69.441739 54.497434 69.378181 52.248805 69.33654 C 50.022093 69.294899 48.531774 69.275174 47.775656 69.275174 C 46.914339 69.358457 45.851391 69.400098 44.591195 69.400098 C 43.352915 69.400098 42.165043 69.579813 41.029771 69.937051 C 39.916415 70.272373 39.107697 70.953975 38.603619 71.984048 C 37.742302 73.623399 37.869418 74.977836 38.982774 76.049551 C 40.09613 77.121266 41.345368 77.835742 42.732679 78.192981 C 43.593996 78.359546 45.358271 78.44502 48.027696 78.44502 C 50.694928 78.44502 53.719399 78.381462 57.1033 78.256538 C 60.506926 78.129423 63.772478 78.004499 66.90434 77.877384 C 70.055927 77.730543 72.449204 77.614386 74.088555 77.531104 C 74.866589 77.531104 75.25451 77.877384 75.25451 78.569944 Z M 75.25451 78.569944 " stroke="#000000" stroke-width="9.681525" stroke-opacity="1" stroke-miterlimit="4"/><g fill="#ffffff" fill-opacity="1"><g transform="translate(23.316458, 416.00807)"><g><path d="M 134.125 -38.1875 C 134.125 -36.195312 134.125 -34.007812 134.125 -31.625 C 134.125 -29.25 134.125 -27.21875 134.125 -25.53125 C 134.125 -24.3125 134.160156 -22.472656 134.234375 -20.015625 C 134.316406 -17.554688 134.429688 -14.910156 134.578125 -12.078125 C 134.734375 -9.242188 134.847656 -6.828125 134.921875 -4.828125 C 135.003906 -2.835938 135.046875 -1.84375 135.046875 -1.84375 C 135.046875 -0.613281 134.429688 0 133.203125 0 L 8.75 0 C 6.59375 0 5.59375 -1.070312 5.75 -3.21875 C 6.207031 -14.71875 6.472656 -26.257812 6.546875 -37.84375 C 6.628906 -49.425781 6.75 -61.046875 6.90625 -72.703125 C 7.050781 -84.046875 7.46875 -95.46875 8.15625 -106.96875 C 8.851562 -118.476562 8.359375 -129.910156 6.671875 -141.265625 C 6.515625 -142.179688 6.742188 -142.984375 7.359375 -143.671875 C 7.972656 -144.359375 8.738281 -144.703125 9.65625 -144.703125 L 132.28125 -144.703125 C 133.207031 -144.703125 133.820312 -144.242188 134.125 -143.328125 C 134.125 -143.171875 134.082031 -142.476562 134 -141.25 C 133.925781 -140.03125 133.816406 -138.804688 133.671875 -137.578125 C 133.671875 -136.804688 133.59375 -135.039062 133.4375 -132.28125 C 133.28125 -129.519531 133.160156 -126.644531 133.078125 -123.65625 C 133.003906 -120.664062 132.96875 -118.40625 132.96875 -116.875 C 132.96875 -115.34375 133.046875 -113.460938 133.203125 -111.234375 C 133.359375 -109.015625 133.550781 -107.019531 133.78125 -105.25 C 134.007812 -103.488281 134.125 -102.609375 134.125 -102.609375 C 134.125 -101.378906 133.4375 -100.765625 132.0625 -100.765625 C 132.0625 -100.765625 130.5625 -100.800781 127.5625 -100.875 C 124.570312 -100.957031 120.773438 -101 116.171875 -101 C 111.578125 -101 106.707031 -101 101.5625 -101 C 96.425781 -101 91.671875 -100.921875 87.296875 -100.765625 C 82.929688 -100.609375 79.523438 -100.378906 77.078125 -100.078125 C 74.773438 -99.765625 72.429688 -99.070312 70.046875 -98 C 67.671875 -96.925781 66.332031 -95.007812 66.03125 -92.25 C 65.875 -90.5625 66.410156 -89.140625 67.640625 -87.984375 C 68.867188 -86.835938 70.171875 -85.960938 71.546875 -85.359375 C 72.316406 -85.203125 74.734375 -85.046875 78.796875 -84.890625 C 82.859375 -84.734375 87.726562 -84.65625 93.40625 -84.65625 C 99.082031 -84.65625 104.796875 -84.691406 110.546875 -84.765625 C 116.296875 -84.847656 121.164062 -84.890625 125.15625 -84.890625 C 129.144531 -84.890625 131.445312 -84.890625 132.0625 -84.890625 C 133.4375 -84.890625 134.125 -84.273438 134.125 -83.046875 L 134.125 -63.953125 C 134.125 -62.265625 134.125 -60.804688 134.125 -59.578125 C 134.125 -58.359375 134.125 -57.054688 134.125 -55.671875 C 134.125 -54.441406 133.4375 -53.828125 132.0625 -53.828125 C 129.445312 -53.828125 125.800781 -53.863281 121.125 -53.9375 C 116.445312 -54.019531 111.613281 -54.140625 106.625 -54.296875 C 101.644531 -54.453125 97.160156 -54.566406 93.171875 -54.640625 C 89.179688 -54.710938 86.5 -54.75 85.125 -54.75 C 83.59375 -54.601562 81.710938 -54.53125 79.484375 -54.53125 C 77.265625 -54.53125 75.15625 -54.222656 73.15625 -53.609375 C 71.164062 -52.992188 69.707031 -51.765625 68.78125 -49.921875 C 67.25 -47.003906 67.476562 -44.585938 69.46875 -42.671875 C 71.46875 -40.753906 73.695312 -39.488281 76.15625 -38.875 C 77.6875 -38.570312 80.828125 -38.421875 85.578125 -38.421875 C 90.335938 -38.421875 95.742188 -38.535156 101.796875 -38.765625 C 107.859375 -38.992188 113.6875 -39.222656 119.28125 -39.453125 C 124.882812 -39.679688 129.144531 -39.875 132.0625 -40.03125 C 133.4375 -40.03125 134.125 -39.414062 134.125 -38.1875 Z M 134.125 -38.1875 "/></g></g></g><path stroke-linecap="butt" transform="matrix(2.47332, 0, 0, 2.47332, 87.721259, 460.909749)" fill="none" stroke-linejoin="miter" d="M 50.09297 13.127764 C 49.477022 13.127764 48.928986 13.051955 48.448862 12.900337 C 47.968738 12.74714 47.569161 12.548141 47.250131 12.301761 C 46.929522 12.053803 46.684722 11.783733 46.514152 11.486814 L 47.480717 10.308615 L 47.632335 10.308615 C 47.899246 10.706613 48.238808 11.022484 48.64944 11.256228 C 49.060072 11.491552 49.541776 11.608424 50.09297 11.608424 C 50.562039 11.608424 50.915815 11.510504 51.155876 11.311506 C 51.394359 11.112507 51.51439 10.839279 51.51439 10.49182 C 51.51439 10.280187 51.474906 10.104878 51.397518 9.962736 C 51.321709 9.820595 51.193781 9.698984 51.015314 9.597905 C 50.836847 9.496827 50.596785 9.409962 50.293549 9.337312 L 49.150096 9.076718 C 48.352521 8.893513 47.758684 8.591856 47.368583 8.168589 C 46.976903 7.745322 46.782642 7.195706 46.782642 6.518163 C 46.782642 6.015928 46.907411 5.575288 47.158529 5.194663 C 47.409646 4.814039 47.774477 4.518699 48.254601 4.307066 C 48.734725 4.097012 49.308031 3.991195 49.977678 3.991195 C 50.661538 3.991195 51.247479 4.082797 51.7355 4.262844 C 52.223521 4.44289 52.635732 4.719278 52.972135 5.092005 L 52.10349 6.28126 L 51.950292 6.28126 C 51.700754 6.019087 51.411732 5.821667 51.087964 5.689002 C 50.764196 5.557915 50.394627 5.491582 49.977678 5.491582 C 49.494395 5.491582 49.127985 5.576867 48.876867 5.747438 C 48.62575 5.918008 48.500981 6.151753 48.500981 6.45183 C 48.500981 6.731376 48.589424 6.954065 48.764733 7.119897 C 48.941621 7.28573 49.246436 7.415237 49.679179 7.508419 L 50.846323 7.751639 C 51.708651 7.934845 52.334075 8.242819 52.722597 8.678721 C 53.111118 9.113043 53.305379 9.681611 53.305379 10.381266 C 53.305379 10.937199 53.186927 11.418902 52.946865 11.831114 C 52.708383 12.241746 52.34829 12.560776 51.866586 12.786623 C 51.384883 13.014051 50.792625 13.127764 50.09297 13.127764 Z M 64.529855 4.119123 C 65.166335 4.119123 65.709634 4.235995 66.161329 4.46816 C 66.613025 4.701905 66.954165 5.027252 67.184751 5.44736 C 67.415337 5.865889 67.53063 6.352331 67.53063 6.908264 C 67.53063 7.462617 67.415337 7.949059 67.184751 8.366008 C 66.954165 8.782958 66.613025 9.106726 66.161329 9.340471 C 65.709634 9.572636 65.166335 9.689508 64.529855 9.689508 L 62.85416 9.689508 L 62.85416 12.999836 L 61.097917 12.999836 L 61.097917 4.119123 Z M 64.29927 8.298096 C 65.275311 8.298096 65.763332 7.835345 65.763332 6.908264 C 65.763332 5.976444 65.275311 5.510534 64.29927 5.510534 L 62.85416 5.510534 L 62.85416 8.298096 Z M 79.059922 13.127764 C 78.246554 13.127764 77.527948 12.961932 76.905682 12.628688 C 76.284995 12.297023 75.798554 11.79005 75.446358 11.107769 C 75.092582 10.425488 74.917274 9.575794 74.917274 8.560269 C 74.917274 7.543164 75.092582 6.693471 75.446358 6.01119 C 75.798554 5.328909 76.284995 4.821936 76.905682 4.490271 C 77.527948 4.158607 78.246554 3.991195 79.059922 3.991195 C 79.87329 3.991195 80.590317 4.157027 81.209425 4.487112 C 81.830111 4.817198 82.314973 5.324171 82.66559 6.008031 C 83.014627 6.693471 83.189936 7.543164 83.189936 8.560269 C 83.189936 9.575794 83.014627 10.427067 82.66559 11.110928 C 82.314973 11.794788 81.830111 12.301761 81.209425 12.631847 C 80.590317 12.961932 79.87329 13.127764 79.059922 13.127764 Z M 79.059922 11.603686 C 79.813275 11.603686 80.38816 11.360466 80.784578 10.877183 C 81.180996 10.3939 81.379995 9.620016 81.379995 8.560269 C 81.379995 7.498943 81.180996 6.725059 80.784578 6.238617 C 80.38816 5.753755 79.813275 5.510534 79.059922 5.510534 C 78.301832 5.510534 77.723788 5.753755 77.32579 6.238617 C 76.926213 6.725059 76.727215 7.498943 76.727215 8.560269 C 76.727215 9.620016 76.926213 10.3939 77.32579 10.877183 C 77.723788 11.360466 78.301832 11.603686 79.059922 11.603686 Z M 91.208322 12.999836 L 91.208322 4.119123 L 94.772926 4.119123 C 95.692111 4.119123 96.385448 4.330756 96.852937 4.754023 C 97.322005 5.177291 97.55575 5.761652 97.55575 6.507108 C 97.55575 7.045668 97.418346 7.486308 97.145117 7.830607 C 96.871889 8.174907 96.464415 8.438659 95.921117 8.620285 L 95.921117 8.748212 C 96.200663 8.869823 96.426511 9.049869 96.598661 9.288352 C 96.77081 9.526834 96.933484 9.882189 97.086681 10.351258 L 97.974279 12.999836 L 96.170655 12.999836 L 95.30201 10.34494 C 95.211987 10.078029 95.112487 9.871134 95.000353 9.722675 C 94.889798 9.575794 94.747656 9.468398 94.575507 9.400486 C 94.403357 9.334153 94.180668 9.300987 93.904281 9.300987 L 92.962985 9.300987 L 92.962985 12.999836 Z M 94.561292 7.909575 C 95.410985 7.909575 95.835832 7.513157 95.835832 6.718741 C 95.835832 5.91327 95.410985 5.510534 94.561292 5.510534 L 92.962985 5.510534 L 92.962985 7.909575 Z M 111.634121 4.119123 L 111.634121 5.59582 L 109.070828 5.59582 L 109.070828 12.999836 L 107.322482 12.999836 L 107.322482 5.59582 L 104.759188 5.59582 L 104.759188 4.119123 Z M 121.972579 13.127764 C 121.35821 13.127764 120.810174 13.051955 120.33005 12.900337 C 119.849926 12.74714 119.450349 12.548141 119.12974 12.301761 C 118.810711 12.053803 118.56591 11.783733 118.39534 11.486814 L 119.360326 10.308615 L 119.513524 10.308615 C 119.780435 10.706613 120.119996 11.022484 120.530628 11.256228 C 120.941261 11.491552 121.422964 11.608424 121.972579 11.608424 C 122.443227 11.608424 122.797003 11.510504 123.035485 11.311506 C 123.275547 11.112507 123.393999 10.839279 123.393999 10.49182 C 123.393999 10.280187 123.356094 10.104878 123.278706 9.962736 C 123.201318 9.820595 123.074969 9.698984 122.896502 9.597905 C 122.718035 9.496827 122.476394 9.409962 122.173158 9.337312 L 121.031284 9.076718 C 120.233709 8.893513 119.639872 8.591856 119.248192 8.168589 C 118.858091 7.745322 118.662251 7.195706 118.662251 6.518163 C 118.662251 6.015928 118.7886 5.575288 119.039717 5.194663 C 119.290834 4.814039 119.655665 4.518699 120.135789 4.307066 C 120.615913 4.097012 121.189219 3.991195 121.857286 3.991195 C 122.541147 3.991195 123.128667 4.082797 123.616688 4.262844 C 124.104709 4.44289 124.515341 4.719278 124.851744 5.092005 L 123.983098 6.28126 L 123.83148 6.28126 C 123.580363 6.019087 123.29292 5.821667 122.969152 5.689002 C 122.645385 5.557915 122.274236 5.491582 121.857286 5.491582 C 121.375583 5.491582 121.009173 5.576867 120.758055 5.747438 C 120.506938 5.918008 120.382169 6.151753 120.382169 6.45183 C 120.382169 6.731376 120.469033 6.954065 120.645921 7.119897 C 120.82123 7.28573 121.126045 7.415237 121.560368 7.508419 L 122.725932 7.751639 C 123.58826 7.934845 124.213684 8.242819 124.603785 8.678721 C 124.992306 9.113043 125.186567 9.681611 125.186567 10.381266 C 125.186567 10.937199 125.066536 11.418902 124.828053 11.831114 C 124.589571 12.241746 124.227898 12.560776 123.746195 12.786623 C 123.264492 13.014051 122.673813 13.127764 121.972579 13.127764 Z M 145.771881 13.127764 C 144.953775 13.127764 144.233589 12.957194 143.609744 12.617632 C 142.985899 12.276492 142.497878 11.76636 142.145682 11.084079 C 141.793486 10.401797 141.618177 9.560001 141.618177 8.560269 C 141.618177 7.558958 141.793486 6.718741 142.145682 6.03646 C 142.497878 5.354178 142.985899 4.842467 143.609744 4.502906 C 144.233589 4.161765 144.953775 3.991195 145.771881 3.991195 C 146.626312 3.991195 147.352816 4.158607 147.949812 4.49343 C 148.546808 4.826674 148.973234 5.336805 149.22909 6.020666 L 147.946653 6.804026 L 147.795035 6.797709 C 147.603933 6.336537 147.346498 6.004873 147.021151 5.805874 C 146.694225 5.605296 146.278854 5.504217 145.771881 5.504217 C 145.035902 5.504217 144.459437 5.749017 144.047226 6.237038 C 143.633434 6.725059 143.428118 7.498943 143.428118 8.560269 C 143.428118 9.616858 143.633434 10.389162 144.047226 10.877183 C 144.459437 11.365204 145.035902 11.608424 145.771881 11.608424 C 146.92639 11.608424 147.632362 11.047753 147.891376 9.926411 L 148.044573 9.926411 L 149.338065 10.600796 C 149.094844 11.442592 148.679474 12.074334 148.091954 12.496022 C 147.506013 12.91771 146.732129 13.127764 145.771881 13.127764 Z M 158.697323 4.119123 L 158.697323 11.529457 L 162.688354 11.529457 L 162.688354 12.999836 L 156.94266 12.999836 L 156.94266 4.119123 Z M 173.846497 13.127764 C 172.624077 13.127764 171.715947 12.837163 171.125269 12.25596 C 170.53459 11.674757 170.23925 10.814009 170.23925 9.670556 L 170.23925 4.119123 L 171.957589 4.119123 L 171.957589 9.6595 C 171.957589 10.307036 172.113945 10.793477 172.425078 11.117245 C 172.73779 11.441013 173.211597 11.603686 173.846497 11.603686 C 175.106823 11.603686 175.735406 10.954571 175.735406 9.6595 L 175.735406 4.119123 L 177.455324 4.119123 L 177.455324 9.670556 C 177.455324 10.814009 177.158405 11.674757 176.567726 12.25596 C 175.977047 12.837163 175.068918 13.127764 173.846497 13.127764 Z M 185.866969 12.999836 L 185.866969 4.119123 L 189.657421 4.119123 C 190.203878 4.119123 190.666629 4.205987 191.045674 4.378137 C 191.42314 4.550287 191.710583 4.795087 191.904844 5.112537 C 192.099104 5.429987 192.197024 5.805874 192.197024 6.238617 C 192.197024 6.631877 192.100684 6.977755 191.911161 7.277833 C 191.720059 7.57791 191.446831 7.817972 191.091476 8.001177 L 191.091476 8.129105 C 191.648988 8.274406 192.080152 8.539738 192.384967 8.923521 C 192.688204 9.308883 192.839822 9.781111 192.839822 10.340202 C 192.839822 11.189895 192.583966 11.845328 192.072255 12.308079 C 191.558965 12.76925 190.799295 12.999836 189.791666 12.999836 Z M 189.29259 7.660037 C 190.110696 7.660037 190.519749 7.292047 190.519749 6.554488 C 190.519749 6.178602 190.41867 5.897476 190.216513 5.714271 C 190.014355 5.529487 189.706381 5.437884 189.29259 5.437884 L 187.623212 5.437884 L 187.623212 7.660037 Z M 189.614779 11.608424 C 190.582923 11.608424 191.066206 11.169364 191.066206 10.291242 C 191.066206 9.408383 190.582923 8.966163 189.614779 8.966163 L 187.623212 8.966163 L 187.623212 11.608424 Z M 189.614779 11.608424 " stroke="#222222" stroke-width="0.435596" stroke-opacity="1" stroke-miterlimit="4"/><g fill="#ffffff" fill-opacity="1"><g transform="translate(201.880419, 493.062905)"><g><path d="M 9.734375 0.3125 C 8.210938 0.3125 6.859375 0.125 5.671875 -0.25 C 4.484375 -0.625 3.492188 -1.113281 2.703125 -1.71875 C 1.910156 -2.332031 1.304688 -3.003906 0.890625 -3.734375 L 3.28125 -6.65625 L 3.65625 -6.65625 C 4.3125 -5.675781 5.144531 -4.894531 6.15625 -4.3125 C 7.175781 -3.726562 8.367188 -3.4375 9.734375 -3.4375 C 10.898438 -3.4375 11.773438 -3.679688 12.359375 -4.171875 C 12.953125 -4.660156 13.25 -5.335938 13.25 -6.203125 C 13.25 -6.722656 13.148438 -7.15625 12.953125 -7.5 C 12.765625 -7.851562 12.453125 -8.15625 12.015625 -8.40625 C 11.578125 -8.65625 10.984375 -8.875 10.234375 -9.0625 L 7.40625 -9.703125 C 5.4375 -10.148438 3.96875 -10.894531 3 -11.9375 C 2.03125 -12.988281 1.546875 -14.351562 1.546875 -16.03125 C 1.546875 -17.269531 1.851562 -18.359375 2.46875 -19.296875 C 3.09375 -20.242188 4 -20.976562 5.1875 -21.5 C 6.375 -22.019531 7.796875 -22.28125 9.453125 -22.28125 C 11.140625 -22.28125 12.585938 -22.054688 13.796875 -21.609375 C 15.003906 -21.160156 16.023438 -20.476562 16.859375 -19.5625 L 14.703125 -16.609375 L 14.328125 -16.609375 C 13.710938 -17.265625 13.003906 -17.753906 12.203125 -18.078125 C 11.398438 -18.398438 10.484375 -18.5625 9.453125 -18.5625 C 8.253906 -18.5625 7.34375 -18.351562 6.71875 -17.9375 C 6.101562 -17.519531 5.796875 -16.9375 5.796875 -16.1875 C 5.796875 -15.5 6.015625 -14.945312 6.453125 -14.53125 C 6.890625 -14.125 7.644531 -13.804688 8.71875 -13.578125 L 11.59375 -12.984375 C 13.726562 -12.523438 15.273438 -11.757812 16.234375 -10.6875 C 17.203125 -9.613281 17.6875 -8.207031 17.6875 -6.46875 C 17.6875 -5.101562 17.390625 -3.910156 16.796875 -2.890625 C 16.203125 -1.867188 15.304688 -1.078125 14.109375 -0.515625 C 12.921875 0.0351562 11.460938 0.3125 9.734375 0.3125 Z M 9.734375 0.3125 "/></g></g></g><g fill="#ffffff" fill-opacity="1"><g transform="translate(235.983188, 493.062905)"><g><path d="M 11.34375 -21.96875 C 12.914062 -21.96875 14.257812 -21.675781 15.375 -21.09375 C 16.488281 -20.519531 17.332031 -19.710938 17.90625 -18.671875 C 18.476562 -17.640625 18.765625 -16.4375 18.765625 -15.0625 C 18.765625 -13.695312 18.476562 -12.5 17.90625 -11.46875 C 17.332031 -10.4375 16.488281 -9.628906 15.375 -9.046875 C 14.257812 -8.472656 12.914062 -8.1875 11.34375 -8.1875 L 7.203125 -8.1875 L 7.203125 0 L 2.859375 0 L 2.859375 -21.96875 Z M 10.765625 -11.625 C 13.179688 -11.625 14.390625 -12.769531 14.390625 -15.0625 C 14.390625 -17.363281 13.179688 -18.515625 10.765625 -18.515625 L 7.203125 -18.515625 L 7.203125 -11.625 Z M 10.765625 -11.625 "/></g></g></g><g fill="#ffffff" fill-opacity="1"><g transform="translate(271.287594, 493.062905)"><g><path d="M 11.96875 0.3125 C 9.957031 0.3125 8.179688 -0.09375 6.640625 -0.90625 C 5.109375 -1.726562 3.90625 -2.984375 3.03125 -4.671875 C 2.164062 -6.359375 1.734375 -8.460938 1.734375 -10.984375 C 1.734375 -13.492188 2.164062 -15.59375 3.03125 -17.28125 C 3.90625 -18.96875 5.109375 -20.222656 6.640625 -21.046875 C 8.179688 -21.867188 9.957031 -22.28125 11.96875 -22.28125 C 13.988281 -22.28125 15.765625 -21.867188 17.296875 -21.046875 C 18.828125 -20.234375 20.023438 -18.976562 20.890625 -17.28125 C 21.753906 -15.59375 22.1875 -13.492188 22.1875 -10.984375 C 22.1875 -8.460938 21.753906 -6.359375 20.890625 -4.671875 C 20.023438 -2.984375 18.828125 -1.726562 17.296875 -0.90625 C 15.765625 -0.09375 13.988281 0.3125 11.96875 0.3125 Z M 11.96875 -3.453125 C 13.832031 -3.453125 15.253906 -4.050781 16.234375 -5.25 C 17.222656 -6.445312 17.71875 -8.359375 17.71875 -10.984375 C 17.71875 -13.609375 17.222656 -15.519531 16.234375 -16.71875 C 15.253906 -17.914062 13.832031 -18.515625 11.96875 -18.515625 C 10.09375 -18.515625 8.660156 -17.914062 7.671875 -16.71875 C 6.691406 -15.519531 6.203125 -13.609375 6.203125 -10.984375 C 6.203125 -8.359375 6.691406 -6.445312 7.671875 -5.25 C 8.660156 -4.050781 10.09375 -3.453125 11.96875 -3.453125 Z M 11.96875 -3.453125 "/></g></g></g><g fill="#ffffff" fill-opacity="1"><g transform="translate(310.452259, 493.062905)"><g><path d="M 2.859375 0 L 2.859375 -21.96875 L 11.671875 -21.96875 C 13.941406 -21.96875 15.65625 -21.441406 16.8125 -20.390625 C 17.96875 -19.347656 18.546875 -17.90625 18.546875 -16.0625 C 18.546875 -14.726562 18.207031 -13.632812 17.53125 -12.78125 C 16.863281 -11.925781 15.859375 -11.273438 14.515625 -10.828125 L 14.515625 -10.515625 C 15.203125 -10.210938 15.757812 -9.765625 16.1875 -9.171875 C 16.613281 -8.585938 17.015625 -7.710938 17.390625 -6.546875 L 19.59375 0 L 15.125 0 L 12.984375 -6.5625 C 12.765625 -7.226562 12.515625 -7.742188 12.234375 -8.109375 C 11.960938 -8.472656 11.613281 -8.738281 11.1875 -8.90625 C 10.757812 -9.070312 10.207031 -9.15625 9.53125 -9.15625 L 7.203125 -9.15625 L 7.203125 0 Z M 11.140625 -12.59375 C 13.242188 -12.59375 14.296875 -13.570312 14.296875 -15.53125 C 14.296875 -17.519531 13.242188 -18.515625 11.140625 -18.515625 L 7.203125 -18.515625 L 7.203125 -12.59375 Z M 11.140625 -12.59375 "/></g></g></g><g fill="#ffffff" fill-opacity="1"><g transform="translate(346.222299, 493.062905)"><g><path d="M 17.609375 -21.96875 L 17.609375 -18.3125 L 11.265625 -18.3125 L 11.265625 0 L 6.9375 0 L 6.9375 -18.3125 L 0.59375 -18.3125 L 0.59375 -21.96875 Z M 17.609375 -21.96875 "/></g></g></g><g fill="#ffffff" fill-opacity="1"><g transform="translate(379.664158, 493.062905)"><g><path d="M 9.734375 0.3125 C 8.210938 0.3125 6.859375 0.125 5.671875 -0.25 C 4.484375 -0.625 3.492188 -1.113281 2.703125 -1.71875 C 1.910156 -2.332031 1.304688 -3.003906 0.890625 -3.734375 L 3.28125 -6.65625 L 3.65625 -6.65625 C 4.3125 -5.675781 5.144531 -4.894531 6.15625 -4.3125 C 7.175781 -3.726562 8.367188 -3.4375 9.734375 -3.4375 C 10.898438 -3.4375 11.773438 -3.679688 12.359375 -4.171875 C 12.953125 -4.660156 13.25 -5.335938 13.25 -6.203125 C 13.25 -6.722656 13.148438 -7.15625 12.953125 -7.5 C 12.765625 -7.851562 12.453125 -8.15625 12.015625 -8.40625 C 11.578125 -8.65625 10.984375 -8.875 10.234375 -9.0625 L 7.40625 -9.703125 C 5.4375 -10.148438 3.96875 -10.894531 3 -11.9375 C 2.03125 -12.988281 1.546875 -14.351562 1.546875 -16.03125 C 1.546875 -17.269531 1.851562 -18.359375 2.46875 -19.296875 C 3.09375 -20.242188 4 -20.976562 5.1875 -21.5 C 6.375 -22.019531 7.796875 -22.28125 9.453125 -22.28125 C 11.140625 -22.28125 12.585938 -22.054688 13.796875 -21.609375 C 15.003906 -21.160156 16.023438 -20.476562 16.859375 -19.5625 L 14.703125 -16.609375 L 14.328125 -16.609375 C 13.710938 -17.265625 13.003906 -17.753906 12.203125 -18.078125 C 11.398438 -18.398438 10.484375 -18.5625 9.453125 -18.5625 C 8.253906 -18.5625 7.34375 -18.351562 6.71875 -17.9375 C 6.101562 -17.519531 5.796875 -16.9375 5.796875 -16.1875 C 5.796875 -15.5 6.015625 -14.945312 6.453125 -14.53125 C 6.890625 -14.125 7.644531 -13.804688 8.71875 -13.578125 L 11.59375 -12.984375 C 13.726562 -12.523438 15.273438 -11.757812 16.234375 -10.6875 C 17.203125 -9.613281 17.6875 -8.207031 17.6875 -6.46875 C 17.6875 -5.101562 17.390625 -3.910156 16.796875 -2.890625 C 16.203125 -1.867188 15.304688 -1.078125 14.109375 -0.515625 C 12.921875 0.0351562 11.460938 0.3125 9.734375 0.3125 Z M 9.734375 0.3125 "/></g></g></g><g fill="#ffffff" fill-opacity="1"><g transform="translate(413.766917, 493.062905)"><g/></g></g><g fill="#ffffff" fill-opacity="1"><g transform="translate(436.258857, 493.062905)"><g><path d="M 12 0.3125 C 9.976562 0.3125 8.195312 -0.101562 6.65625 -0.9375 C 5.113281 -1.78125 3.90625 -3.046875 3.03125 -4.734375 C 2.164062 -6.421875 1.734375 -8.503906 1.734375 -10.984375 C 1.734375 -13.453125 2.164062 -15.53125 3.03125 -17.21875 C 3.90625 -18.90625 5.113281 -20.171875 6.65625 -21.015625 C 8.195312 -21.859375 9.976562 -22.28125 12 -22.28125 C 14.113281 -22.28125 15.910156 -21.863281 17.390625 -21.03125 C 18.867188 -20.207031 19.921875 -18.953125 20.546875 -17.265625 L 17.375 -15.328125 L 17 -15.34375 C 16.53125 -16.476562 15.890625 -17.289062 15.078125 -17.78125 C 14.273438 -18.28125 13.25 -18.53125 12 -18.53125 C 10.175781 -18.53125 8.753906 -17.925781 7.734375 -16.71875 C 6.710938 -15.519531 6.203125 -13.609375 6.203125 -10.984375 C 6.203125 -8.367188 6.710938 -6.457031 7.734375 -5.25 C 8.753906 -4.039062 10.175781 -3.4375 12 -3.4375 C 14.851562 -3.4375 16.601562 -4.820312 17.25 -7.59375 L 17.625 -7.59375 L 20.828125 -5.9375 C 20.222656 -3.851562 19.191406 -2.289062 17.734375 -1.25 C 16.285156 -0.207031 14.375 0.3125 12 0.3125 Z M 12 0.3125 "/></g></g></g><g fill="#ffffff" fill-opacity="1"><g transform="translate(473.035259, 493.062905)"><g><path d="M 7.203125 -21.96875 L 7.203125 -3.640625 L 17.0625 -3.640625 L 17.0625 0 L 2.859375 0 L 2.859375 -21.96875 Z M 7.203125 -21.96875 "/></g></g></g><g fill="#ffffff" fill-opacity="1"><g transform="translate(506.056544, 493.062905)"><g><path d="M 11.640625 0.3125 C 8.617188 0.3125 6.375 -0.40625 4.90625 -1.84375 C 3.445312 -3.28125 2.71875 -5.410156 2.71875 -8.234375 L 2.71875 -21.96875 L 6.96875 -21.96875 L 6.96875 -8.265625 C 6.96875 -6.660156 7.351562 -5.457031 8.125 -4.65625 C 8.894531 -3.851562 10.066406 -3.453125 11.640625 -3.453125 C 14.753906 -3.453125 16.3125 -5.054688 16.3125 -8.265625 L 16.3125 -21.96875 L 20.5625 -21.96875 L 20.5625 -8.234375 C 20.5625 -5.410156 19.828125 -3.28125 18.359375 -1.84375 C 16.898438 -0.40625 14.660156 0.3125 11.640625 0.3125 Z M 11.640625 0.3125 "/></g></g></g><g fill="#ffffff" fill-opacity="1"><g transform="translate(544.57532, 493.062905)"><g><path d="M 2.859375 0 L 2.859375 -21.96875 L 12.234375 -21.96875 C 13.578125 -21.96875 14.71875 -21.753906 15.65625 -21.328125 C 16.59375 -20.898438 17.300781 -20.289062 17.78125 -19.5 C 18.257812 -18.71875 18.5 -17.789062 18.5 -16.71875 C 18.5 -15.75 18.265625 -14.894531 17.796875 -14.15625 C 17.328125 -13.414062 16.648438 -12.816406 15.765625 -12.359375 L 15.765625 -12.046875 C 17.148438 -11.679688 18.21875 -11.023438 18.96875 -10.078125 C 19.71875 -9.128906 20.09375 -7.960938 20.09375 -6.578125 C 20.09375 -4.472656 19.457031 -2.847656 18.1875 -1.703125 C 16.925781 -0.566406 15.050781 0 12.5625 0 Z M 11.328125 -13.203125 C 13.347656 -13.203125 14.359375 -14.113281 14.359375 -15.9375 C 14.359375 -16.863281 14.109375 -17.554688 13.609375 -18.015625 C 13.109375 -18.472656 12.347656 -18.703125 11.328125 -18.703125 L 7.203125 -18.703125 L 7.203125 -13.203125 Z M 12.125 -3.4375 C 14.519531 -3.4375 15.71875 -4.523438 15.71875 -6.703125 C 15.71875 -8.878906 14.519531 -9.96875 12.125 -9.96875 L 7.203125 -9.96875 L 7.203125 -3.4375 Z M 12.125 -3.4375 "/></g></g></g></svg>